<svg width="200" height="58" viewBox="0 0 200 58" fill="none" xmlns="http://www.w3.org/2000/svg">
<g clip-path="url(#clip0_304_76)">
<path d="M43.681 32.7301C43.5022 31.5549 43.681 29.0137 43.681 29.0137C43.681 29.0137 42.962 29.1218 41.3786 29.3378C39.7982 29.5543 36.2364 28.8329 31.7035 32.7301C28.3323 35.626 28.5634 40.1926 28.9051 42.345C29.9144 40.269 32.3987 36.0557 36.5805 34.3683C39.7827 33.062 41.5156 31.6428 41.5156 31.6428C41.5156 31.6428 41.0051 32.7014 35.8994 35.1846C31.8262 37.1674 29.92 41.7079 29.3153 43.4608C30.2697 43.1117 33.7408 43.3226 35.1216 43.2234C36.5949 43.1134 38.6465 42.5394 40.9487 40.6681C43.2497 38.7983 43.965 34.5716 43.6813 32.7299" fill="#91C45B"/>
<path d="M29.1417 26.9517C29.1417 26.9517 27.8163 18.6341 23.1404 15.7305C20.7729 14.2606 18.5678 13.2426 13.2256 14.2979C13.2256 14.2979 13.4834 21.091 17.6262 24.5541C21.7666 28.019 26.0592 28.5991 28.1287 28.1309C28.1287 28.1309 25.1213 23.6104 22.2917 21.55C19.4604 19.488 17.9915 18.2205 17.9915 18.2205C17.9915 18.2205 24.0585 21.0003 29.1417 26.9517Z" fill="#F5B01B"/>
<mask id="mask0_304_76" style="mask-type:luminance" maskUnits="userSpaceOnUse" x="44" y="29" width="14" height="14">
<path d="M47.6185 29.0139H47.5696C47.2227 29.0139 46.7094 29.2278 46.4668 29.4734L44.5113 31.4256C44.2683 31.6691 44.0527 32.1839 44.0527 32.5294V39.9444C44.0527 40.2896 44.2683 40.8046 44.5096 41.0472L45.4876 42.023L57.0656 30.4488L56.0888 29.4732C55.8432 29.2276 55.3271 29.0137 54.9844 29.0137H47.6187L47.6185 29.0139Z" fill="white"/>
</mask>
<g mask="url(#mask0_304_76)">
<path d="M57.0275 28.321L43.3584 29.0518L44.089 42.7178L57.7581 41.9871L57.0275 28.321Z" fill="url(#paint0_radial_304_76)"/>
</g>
<mask id="mask1_304_76" style="mask-type:luminance" maskUnits="userSpaceOnUse" x="44" y="15" width="14" height="14">
<path d="M44.5612 16.3313C44.3198 16.573 44.1055 17.0896 44.1055 17.4332V24.8498C44.1041 25.1935 44.3172 25.7089 44.5612 25.9515L46.5153 27.9065C46.7593 28.1512 47.2799 28.3648 47.6191 28.3616H55.0371C55.3798 28.3616 55.8943 28.151 56.1399 27.9065L57.1153 26.9292L57.3461 27.16L57.3471 27.1591L45.5385 15.3555L44.5612 16.3311V16.3313Z" fill="white"/>
</mask>
<g mask="url(#mask1_304_76)">
<path d="M57.309 14.6515L43.4102 15.3945L44.1414 29.073L58.0403 28.33L57.309 14.6515Z" fill="url(#paint1_radial_304_76)"/>
</g>
<mask id="mask2_304_76" style="mask-type:luminance" maskUnits="userSpaceOnUse" x="30" y="0" width="1" height="1">
<path d="M30.1855 0.000470077L30.2986 0.113053L30.1855 0V0.000470077Z" fill="white"/>
</mask>
<g mask="url(#mask2_304_76)">
<path d="M30.2984 -0.00537201L30.1797 0.000976562L30.186 0.119736L30.3048 0.113388L30.2984 -0.00537201Z" fill="url(#paint2_radial_304_76)"/>
</g>
<mask id="mask3_304_76" style="mask-type:luminance" maskUnits="userSpaceOnUse" x="28" y="0" width="14" height="14">
<path d="M29.4168 1.23533C29.1722 1.47695 28.9599 1.99239 28.9599 2.33907L28.959 9.75453C28.9599 10.0991 29.1724 10.6152 29.4171 10.8566L31.37 12.8103C31.6149 13.0559 32.1299 13.2691 32.4723 13.2691H32.5029C32.5029 13.2691 32.5163 13.2676 32.5231 13.2676H39.8887C40.2357 13.2676 40.7487 13.0531 40.9915 12.8103L41.9935 11.8097L30.4186 0.232422L29.4166 1.23533H29.4168Z" fill="white"/>
</mask>
<g mask="url(#mask3_304_76)">
<path d="M41.956 -0.461457L28.2637 0.270508L28.9957 13.9645L42.6881 13.2325L41.956 -0.461457Z" fill="url(#paint3_radial_304_76)"/>
</g>
<mask id="mask4_304_76" style="mask-type:luminance" maskUnits="userSpaceOnUse" x="29" y="13" width="15" height="16">
<path d="M39.8882 13.9211H32.5226C32.1785 13.9211 31.6628 14.1317 31.4198 14.3741L29.4657 16.3312C29.2234 16.5728 29.0088 17.0894 29.0088 17.4331V24.8497C29.0088 25.1933 29.2231 25.7088 29.4657 25.9513L31.4198 27.9064C31.6628 28.1511 32.1785 28.3647 32.5226 28.3647L39.939 28.3614C40.2817 28.3614 40.7988 28.1508 41.0444 27.9064L42.9955 25.9532C43.2382 25.7085 43.4531 25.1933 43.4531 24.8495L43.4557 17.4328C43.4557 17.0894 43.2382 16.5728 42.9955 16.331L41.0399 14.3738C40.7985 14.1315 40.2815 13.9209 39.9388 13.9209H39.888L39.8882 13.9211Z" fill="white"/>
</mask>
<g mask="url(#mask4_304_76)">
<path d="M43.4149 13.1516L28.2393 13.9629L29.0504 29.1358L44.226 28.3245L43.4149 13.1516Z" fill="url(#paint4_radial_304_76)"/>
</g>
<mask id="mask5_304_76" style="mask-type:luminance" maskUnits="userSpaceOnUse" x="13" y="29" width="16" height="15">
<path d="M17.3763 29.0137C17.0306 29.0137 16.5163 29.2276 16.2735 29.4732L14.3171 31.4254C14.0743 31.6689 13.8613 32.1836 13.8613 32.5291V39.946C13.863 40.2913 14.0745 40.8053 14.3171 41.0467L16.2735 43.0036C16.5163 43.2471 17.0306 43.4605 17.3763 43.4598L24.7932 43.4605C25.1373 43.4598 25.6504 43.2462 25.8955 43.0036L27.8496 41.0467C28.0938 40.8053 28.3065 40.2892 28.3065 39.946V32.527C28.3065 32.1836 28.0941 31.6689 27.8496 31.4254L25.8955 29.4732C25.6532 29.2276 25.1371 29.0156 24.7932 29.0137H17.3763Z" fill="white"/>
</mask>
<g mask="url(#mask5_304_76)">
<path d="M28.2641 28.2445L13.0898 29.0557L13.9011 44.2316L29.0754 43.4204L28.2641 28.2445Z" fill="url(#paint5_radial_304_76)"/>
</g>
<mask id="mask6_304_76" style="mask-type:luminance" maskUnits="userSpaceOnUse" x="15" y="44" width="14" height="14">
<path d="M17.4243 44.1132C17.0814 44.1104 16.5665 44.3254 16.3227 44.5675L15.332 45.5314L27.1404 57.3402V57.3393L26.9121 57.1087L27.8976 56.1448C28.1423 55.9022 28.3572 55.3856 28.3572 55.041V47.6251C28.3572 47.2824 28.1423 46.7658 27.8976 46.5223L25.945 44.5675C25.701 44.3235 25.1862 44.1104 24.8405 44.1104L17.4243 44.1132Z" fill="white"/>
</mask>
<g mask="url(#mask6_304_76)">
<path d="M29.0632 57.3028L15.3697 58.0347L14.627 44.1484L28.3205 43.416L29.0632 57.3028Z" fill="url(#paint6_radial_304_76)"/>
</g>
<mask id="mask7_304_76" style="mask-type:luminance" maskUnits="userSpaceOnUse" x="29" y="44" width="14" height="14">
<path d="M32.5226 44.1104C32.1785 44.1104 31.6628 44.3235 31.4198 44.5675L29.4657 46.5223C29.2234 46.7658 29.0088 47.2798 29.0088 47.6251V55.041C29.0088 55.3856 29.2231 55.9006 29.4657 56.1448L30.4169 57.0946L42.2257 45.2879L41.9944 45.5187L41.0402 44.5675C40.7988 44.3235 40.2817 44.1104 39.939 44.1104H32.5226Z" fill="white"/>
</mask>
<g mask="url(#mask7_304_76)">
<path d="M42.9179 57.0572L29.0464 57.799L28.3164 44.1473L42.1879 43.4053L42.9179 57.0572Z" fill="url(#paint7_radial_304_76)"/>
</g>
<mask id="mask8_304_76" style="mask-type:luminance" maskUnits="userSpaceOnUse" x="0" y="29" width="14" height="14">
<path d="M2.27946 29.0163C1.93607 29.0142 1.4211 29.2281 1.17878 29.4739L0.228516 30.3948L12.0357 42.2015V42.2005L11.8074 41.9704L12.7544 41.0479C12.9972 40.8065 13.2113 40.2904 13.2113 39.9472V32.5282C13.2113 32.1865 12.9972 31.6725 12.7544 31.429L10.8005 29.4741C10.5549 29.2316 10.0402 29.0165 9.6961 29.0146L2.27946 29.0168V29.0163Z" fill="white"/>
</mask>
<g mask="url(#mask8_304_76)">
<path d="M13.1736 28.3221L-0.475586 29.0518L0.264371 42.8936L13.9135 42.164L13.1736 28.3221Z" fill="url(#paint8_radial_304_76)"/>
</g>
<mask id="mask9_304_76" style="mask-type:luminance" maskUnits="userSpaceOnUse" x="0" y="30" width="1" height="1">
<path d="M0 30.165L0.225872 30.3914L0.000470077 30.165H0Z" fill="white"/>
</mask>
<g mask="url(#mask9_304_76)">
<path d="M0.223611 30.1533L-0.0136719 30.166L-0.000920521 30.4038L0.236362 30.391L0.223611 30.1533Z" fill="url(#paint9_radial_304_76)"/>
</g>
<mask id="mask10_304_76" style="mask-type:luminance" maskUnits="userSpaceOnUse" x="15" y="0" width="14" height="14">
<path d="M15.0908 12.0874L15.0925 12.089L15.3221 11.8587L16.2754 12.812C16.5163 13.0529 17.0306 13.2675 17.3763 13.2675L24.7932 13.2689C25.1373 13.2689 25.6534 13.0557 25.8955 12.812L27.8496 10.8565C28.0938 10.6151 28.3066 10.0985 28.3066 9.75438V2.33915C28.3066 1.99247 28.0941 1.47797 27.8496 1.23541L26.8996 0.282095L27.1288 0.052933L27.1276 0.0517578L15.0908 12.0876V12.0874Z" fill="white"/>
</mask>
<g mask="url(#mask10_304_76)">
<path d="M28.2692 -0.652284L14.3867 0.0898438L15.1289 13.9739L29.0114 13.2318L28.2692 -0.652284Z" fill="url(#paint10_radial_304_76)"/>
</g>
<mask id="mask11_304_76" style="mask-type:luminance" maskUnits="userSpaceOnUse" x="0" y="15" width="14" height="14">
<path d="M0.0195312 27.1591L0.0207064 27.16L0.251044 26.9292L1.22645 27.9065C1.4723 28.1512 1.98821 28.3648 2.32925 28.3648H9.74589C10.0895 28.3616 10.6057 28.1486 10.8482 27.9065L12.8037 25.9533C13.0461 25.7087 13.2621 25.1935 13.2621 24.8489V17.433C13.2621 17.0896 13.0477 16.573 12.8037 16.3311L11.8279 15.3555L0.0195312 27.1591Z" fill="white"/>
</mask>
<g mask="url(#mask11_304_76)">
<path d="M13.2236 14.6506L-0.674805 15.3936L0.0564195 29.0721L13.9548 28.3291L13.2236 14.6506Z" fill="url(#paint11_radial_304_76)"/>
</g>
<path d="M120.059 34.9065L121.291 33.4479C123.126 35.1075 124.886 35.9371 127.325 35.9371C129.763 35.9371 131.248 34.6799 131.248 32.9451V32.8948C131.248 31.2604 130.368 30.3296 126.672 29.5509C122.624 28.6709 120.762 27.3627 120.762 24.4715V24.4214C120.762 21.6553 123.202 19.6191 126.546 19.6191C129.111 19.6191 130.947 20.3482 132.732 21.781L131.575 23.3151C129.94 21.982 128.306 21.404 126.496 21.404C124.207 21.404 122.748 22.661 122.748 24.2454V24.2955C122.748 25.9553 123.655 26.8856 127.527 27.7155C131.449 28.5696 133.26 30.0031 133.26 32.6939V32.7432C133.26 35.7616 130.745 37.7225 127.249 37.7225C124.459 37.7225 122.171 36.7922 120.059 34.9065" fill="white"/>
<path d="M134.974 28.7217V28.6717C134.974 23.8177 138.62 19.5693 143.977 19.5693C149.333 19.5693 152.928 23.7678 152.928 28.6214V28.6719C152.928 33.5245 149.282 37.7738 143.925 37.7738C138.569 37.7738 134.974 33.5739 134.974 28.7222M150.866 28.7222V28.6721C150.866 24.6734 147.949 21.405 143.925 21.405C139.901 21.405 137.037 24.6231 137.037 28.6218V28.6724C137.037 32.6687 139.953 35.9383 143.977 35.9383C148.001 35.9383 150.866 32.7202 150.866 28.7227" fill="white"/>
<path d="M173.931 19.7441H175.791L183.814 37.4707H181.676L179.614 32.8191H170.033L167.947 37.4707H165.91L173.931 19.7441ZM178.834 31.0337L174.836 22.0572L170.813 31.0337H178.834Z" fill="white"/>
<path d="M157.415 35.6358V19.8701H155.428V37.4712H164.483L165.312 35.6358H157.415Z" fill="white"/>
<path d="M185.44 19.8701H193.009C195.172 19.8701 196.907 20.5242 198.014 21.6301C198.869 22.4852 199.371 23.7168 199.371 25.1004V25.1505C199.371 28.0673 197.36 29.7772 194.594 30.2807L200 37.4712H197.561L192.457 30.6323H187.427V37.4712H185.44V19.8701ZM192.834 28.8469C195.474 28.8469 197.36 27.4887 197.36 25.2259V25.1759C197.36 23.0128 195.7 21.7055 192.859 21.7055H187.427V28.8469H192.834Z" fill="white"/>
<path d="M74.9285 37.7727C73.6374 37.7727 72.439 37.5377 71.3326 37.0686C70.2265 36.6001 69.2711 35.959 68.4663 35.1448C67.6618 34.332 67.0326 33.3724 66.5797 32.266C66.1275 31.1597 65.9014 29.9782 65.9014 28.7205V28.6699C65.9014 27.413 66.1275 26.235 66.5797 25.1378C67.0326 24.0397 67.6618 23.0751 68.4663 22.2454C69.2711 21.4157 70.2345 20.7616 71.3578 20.2842C72.4808 19.8062 73.7216 19.5674 75.0791 19.5674C75.9171 19.5674 76.6718 19.6348 77.3428 19.7686C78.0127 19.9033 78.6247 20.0878 79.1784 20.3221C79.732 20.5571 80.2422 20.8418 80.7125 21.1772C81.1807 21.5123 81.6179 21.8813 82.0196 22.2833L79.5552 25.1244C78.868 24.5046 78.168 24.0183 77.4558 23.6665C76.7425 23.3141 75.9431 23.1378 75.054 23.1378C74.3167 23.1378 73.6339 23.2808 73.0052 23.5652C72.3762 23.8505 71.8361 24.2444 71.3827 24.7476C70.931 25.2508 70.5782 25.8333 70.3267 26.4954C70.0754 27.1575 69.9499 27.8652 69.9499 28.6199V28.6699C69.9499 29.4244 70.0754 30.138 70.3267 30.8069C70.5779 31.4779 70.9263 32.0651 71.3702 32.5674C71.8145 33.0703 72.3511 33.469 72.9795 33.7613C73.6085 34.0556 74.2993 34.2016 75.0538 34.2016C76.0595 34.2016 76.9101 34.0131 77.6063 33.6365C78.3015 33.2586 78.9932 32.7601 79.6805 32.1401L82.1449 34.6296C81.6926 35.1161 81.2235 35.5521 80.7375 35.9369C80.2509 36.3228 79.7183 36.6537 79.1404 36.9301C78.5619 37.2065 77.9285 37.4162 77.2422 37.5591C76.554 37.7004 75.7835 37.7723 74.9282 37.7723" fill="white"/>
<path d="M87.6728 19.8691H83.8008V37.4712H87.6728V19.8691Z" fill="white"/>
<path d="M88.9307 19.8691V23.4405H94.2865V37.4714H98.1597V23.4405H101.122L98.8566 19.8691H88.9307Z" fill="white"/>
<path d="M108.136 30.5305L101.372 19.8691H105.898L110.097 26.936L114.372 19.8691H118.773L112.008 30.455V37.4709H108.136V30.5305Z" fill="white"/>
</g>
<defs>
<radialGradient id="paint0_radial_304_76" cx="0" cy="0" r="1" gradientUnits="userSpaceOnUse" gradientTransform="translate(60.8992 28.6444) rotate(176.94) scale(73.2609 73.2609)">
<stop stop-color="#086385"/>
<stop offset="0.45" stop-color="#086385"/>
<stop offset="0.81" stop-color="#1299AF"/>
<stop offset="1" stop-color="#17B2C3"/>
</radialGradient>
<radialGradient id="paint1_radial_304_76" cx="0" cy="0" r="1" gradientUnits="userSpaceOnUse" gradientTransform="translate(61.4556 28.5578) rotate(176.94) scale(73.3585 73.3585)">
<stop stop-color="#086385"/>
<stop offset="0.45" stop-color="#086385"/>
<stop offset="0.81" stop-color="#1299AF"/>
<stop offset="1" stop-color="#17B2C3"/>
</radialGradient>
<radialGradient id="paint2_radial_304_76" cx="0" cy="0" r="1" gradientUnits="userSpaceOnUse" gradientTransform="translate(64.0879 23.8301) rotate(176.94) scale(71.5029 71.5038)">
<stop stop-color="#086385"/>
<stop offset="0.45" stop-color="#086385"/>
<stop offset="0.81" stop-color="#1299AF"/>
<stop offset="1" stop-color="#17B2C3"/>
</radialGradient>
<radialGradient id="paint3_radial_304_76" cx="0" cy="0" r="1" gradientUnits="userSpaceOnUse" gradientTransform="translate(61.3582 28.4296) rotate(176.94) scale(73.3097 73.3097)">
<stop stop-color="#086385"/>
<stop offset="0.45" stop-color="#086385"/>
<stop offset="0.81" stop-color="#1299AF"/>
<stop offset="1" stop-color="#17B2C3"/>
</radialGradient>
<radialGradient id="paint4_radial_304_76" cx="0" cy="0" r="1" gradientUnits="userSpaceOnUse" gradientTransform="translate(61.3735 28.1897) rotate(176.94) scale(73.4073 73.4073)">
<stop stop-color="#086385"/>
<stop offset="0.45" stop-color="#086385"/>
<stop offset="0.81" stop-color="#1299AF"/>
<stop offset="1" stop-color="#17B2C3"/>
</radialGradient>
<radialGradient id="paint5_radial_304_76" cx="0" cy="0" r="1" gradientUnits="userSpaceOnUse" gradientTransform="translate(61.4246 28.6022) rotate(176.94) scale(73.1633 73.1633)">
<stop stop-color="#086385"/>
<stop offset="0.45" stop-color="#086385"/>
<stop offset="0.81" stop-color="#1299AF"/>
<stop offset="1" stop-color="#17B2C3"/>
</radialGradient>
<radialGradient id="paint6_radial_304_76" cx="0" cy="0" r="1" gradientUnits="userSpaceOnUse" gradientTransform="translate(61.1503 27.9866) rotate(176.94) scale(73.3585 73.3585)">
<stop stop-color="#086385"/>
<stop offset="0.45" stop-color="#086385"/>
<stop offset="0.81" stop-color="#1299AF"/>
<stop offset="1" stop-color="#17B2C3"/>
</radialGradient>
<radialGradient id="paint7_radial_304_76" cx="0" cy="0" r="1" gradientUnits="userSpaceOnUse" gradientTransform="translate(60.686 28.2878) rotate(176.94) scale(73.0657 73.0657)">
<stop stop-color="#086385"/>
<stop offset="0.45" stop-color="#086385"/>
<stop offset="0.81" stop-color="#1299AF"/>
<stop offset="1" stop-color="#17B2C3"/>
</radialGradient>
<radialGradient id="paint8_radial_304_76" cx="0" cy="0" r="1" gradientUnits="userSpaceOnUse" gradientTransform="translate(61.3389 28.5181) rotate(176.94) scale(73.2609 73.2609)">
<stop stop-color="#086385"/>
<stop offset="0.45" stop-color="#086385"/>
<stop offset="0.81" stop-color="#1299AF"/>
<stop offset="1" stop-color="#17B2C3"/>
</radialGradient>
<radialGradient id="paint9_radial_304_76" cx="0" cy="0" r="1" gradientUnits="userSpaceOnUse" gradientTransform="translate(58.2379 29.463) rotate(176.94) scale(69.5515 69.5515)">
<stop stop-color="#086385"/>
<stop offset="0.45" stop-color="#086385"/>
<stop offset="0.81" stop-color="#1299AF"/>
<stop offset="1" stop-color="#17B2C3"/>
</radialGradient>
<radialGradient id="paint10_radial_304_76" cx="0" cy="0" r="1" gradientUnits="userSpaceOnUse" gradientTransform="translate(61.4077 28.1872) rotate(176.94) scale(73.3097 73.3097)">
<stop stop-color="#086385"/>
<stop offset="0.45" stop-color="#086385"/>
<stop offset="0.81" stop-color="#1299AF"/>
<stop offset="1" stop-color="#17B2C3"/>
</radialGradient>
<radialGradient id="paint11_radial_304_76" cx="0" cy="0" r="1" gradientUnits="userSpaceOnUse" gradientTransform="translate(61.4604 28.5866) rotate(176.94) scale(73.3097)">
<stop stop-color="#086385"/>
<stop offset="0.45" stop-color="#086385"/>
<stop offset="0.81" stop-color="#1299AF"/>
<stop offset="1" stop-color="#17B2C3"/>
</radialGradient>
<clipPath id="clip0_304_76">
<rect width="200" height="57.34" fill="white"/>
</clipPath>
</defs>
</svg>
